<svg width="107" height="852" viewBox="0 0 107 852" fill="none" xmlns="http://www.w3.org/2000/svg">
<rect x="41.3281" y="595.25" width="24" height="28" fill="#804EDA"/>
<path d="M56.5481 600.22C56.6888 600.08 56.8794 600.001 57.0781 600.001C57.2769 600.001 57.4675 600.08 57.6081 600.22L64.1081 606.72C64.2486 606.861 64.3275 607.051 64.3275 607.25C64.3275 607.449 64.2486 607.639 64.1081 607.78L57.6081 614.28C57.5165 614.379 57.3999 614.451 57.2706 614.489C57.1414 614.527 57.0043 614.529 56.8737 614.496C56.7432 614.463 56.6241 614.395 56.529 614.299C56.4338 614.204 56.3662 614.085 56.3331 613.954C56.2997 613.824 56.3021 613.687 56.3399 613.557C56.3777 613.428 56.4497 613.312 56.5481 613.22L62.5181 607.25L56.5481 601.28C56.4077 601.139 56.3288 600.949 56.3288 600.75C56.3288 600.551 56.4077 600.361 56.5481 600.22ZM50.1081 600.22C50.2486 600.361 50.3275 600.551 50.3275 600.75C50.3275 600.949 50.2486 601.139 50.1081 601.28L44.1381 607.25L50.1081 613.22C50.2069 613.312 50.279 613.428 50.317 613.558C50.3551 613.687 50.3575 613.824 50.3241 613.954C50.2908 614.085 50.2228 614.204 50.1274 614.299C50.032 614.394 49.9127 614.462 49.7821 614.495C49.6518 614.528 49.5148 614.526 49.3856 614.488C49.2565 614.45 49.1399 614.378 49.0481 614.28L42.5481 607.78C42.4077 607.639 42.3288 607.449 42.3288 607.25C42.3288 607.051 42.4077 606.861 42.5481 606.72L49.0481 600.22C49.1888 600.08 49.3794 600.001 49.5781 600.001C49.7769 600.001 49.9675 600.08 50.1081 600.22Z" fill="white"/>
<rect x="52.8281" y="639.25" width="3" height="637.75" rx="1.5" fill="url(#paint0_linear_233_92)"/>
<defs>
<linearGradient id="paint0_linear_233_92" x1="54.3281" y1="639.25" x2="54.3281" y2="1277" gradientUnits="userSpaceOnUse">
<stop stop-color="#D2A8FF"/>
<stop offset="0.1" stop-color="#A371F7"/>
<stop offset="0.7" stop-color="#196C2E"/>
<stop offset="0.8" stop-color="#2EA043"/>
<stop offset="1" stop-color="#56D364"/>
</linearGradient>
</defs>
</svg>
