<svg width="20" height="20" viewBox="0 0 20 20" fill="none" xmlns="http://www.w3.org/2000/svg">
<path d="M15 1.34C16.5083 2.21085 17.7629 3.46053 18.6398 4.9653C19.5167 6.47007 19.9854 8.17777 19.9994 9.91934C20.0135 11.6609 19.5725 13.376 18.72 14.8947C17.8676 16.4134 16.6332 17.6832 15.1392 18.5783C13.6452 19.4734 11.9434 19.9628 10.2021 19.9981C8.46083 20.0333 6.74055 19.6132 5.21155 18.7792C3.68256 17.9453 2.39787 16.7265 1.48467 15.2435C0.571462 13.7605 0.0614093 12.0647 0.00500011 10.324L0 10L0.00500011 9.676C0.0610032 7.94899 0.563548 6.26596 1.46364 4.79099C2.36373 3.31602 3.63065 2.09945 5.14089 1.25988C6.65113 0.420312 8.35315 -0.013604 10.081 0.000437057C11.8089 0.0144781 13.5036 0.475997 15 1.34ZM13 6H7L6.883 6.007C6.63975 6.03566 6.41547 6.15259 6.25272 6.33563C6.08996 6.51866 6.00003 6.75507 6 7L6.007 7.117C6.03566 7.36025 6.15259 7.58453 6.33563 7.74728C6.51866 7.91004 6.75507 7.99997 7 8H10.584L6.293 12.293L6.21 12.387C6.05459 12.588 5.98151 12.8406 6.0056 13.0935C6.02969 13.3464 6.14916 13.5807 6.33972 13.7488C6.53029 13.9168 6.77767 14.006 7.03162 13.9982C7.28557 13.9905 7.52704 13.8863 7.707 13.707L12 9.414V13L12.007 13.117C12.0371 13.3701 12.1627 13.6021 12.3582 13.7657C12.5536 13.9293 12.8042 14.0121 13.0586 13.9972C13.313 13.9822 13.5522 13.8707 13.7272 13.6854C13.9021 13.5 13.9997 13.2549 14 13V7L13.993 6.883L13.964 6.734L13.929 6.629L13.875 6.516L13.804 6.405C13.7745 6.36534 13.742 6.32791 13.707 6.293L13.617 6.213L13.521 6.146L13.423 6.094L13.313 6.05L13.201 6.02L13.075 6.003L13 6Z" fill="#8B5CF6"/>
</svg>
